<svg id="Layer_1" data-name="Layer 1" xmlns="http://www.w3.org/2000/svg" viewBox="0 0 600 350"><defs><style>.cls-1,.cls-4{fill:#9edae4;}.cls-1{opacity:0.05;}.cls-2{fill:#f85365;}.cls-3{fill:#4b58b2;}.cls-5{fill:#231f20;}</style></defs><title>eludic</title><rect class="cls-1" width="600" height="350"/><path class="cls-2" d="M379.84,180.71,352.48,228.1A20.13,20.13,0,0,1,335,238.17h-37.5l.27-.45a20.09,20.09,0,0,0,0-20.12l-15.67-27.14a20.12,20.12,0,0,0-17.42-10.06H235.36a20.09,20.09,0,0,1,.17-19.82L262.9,113.2a20.08,20.08,0,0,1,17.41-10.08H335a20.14,20.14,0,0,1,17.44,10.08l27.36,47.38A20.16,20.16,0,0,1,379.84,180.71Z"/><path class="cls-3" d="M297.81,237.72l-.27.45H280.31A20.07,20.07,0,0,1,262.9,228.1l-27.37-47.39c-.06-.11-.12-.2-.17-.31h29.36a20.12,20.12,0,0,1,17.42,10.06l15.67,27.14A20.09,20.09,0,0,1,297.81,237.72Z"/><path class="cls-4" d="M297.54,238.17l-15.4,26.7a20.11,20.11,0,0,1-17.42,10.05H233.38A20.14,20.14,0,0,1,216,264.87l-15.67-27.15a20.14,20.14,0,0,1,0-20.12L216,190.46a20.14,20.14,0,0,1,17.43-10.06h2c0,.11.11.2.17.31L262.9,228.1a20.07,20.07,0,0,0,17.41,10.07Z"/><path class="cls-3" d="M373.35,75.08H349.27a12.89,12.89,0,0,0-11.17,6.45l-12.05,20.85a12.94,12.94,0,0,0,0,12.91l12.05,20.85a12.88,12.88,0,0,0,11.17,6.46h24.08a12.91,12.91,0,0,0,11.18-6.46l12-20.85a12.94,12.94,0,0,0,0-12.91l-12-20.85A12.92,12.92,0,0,0,373.35,75.08Z"/><path class="cls-5" d="M204.08,193.66a23.44,23.44,0,0,1-11.53-2.77,20.08,20.08,0,0,1-7.9-7.8,23.21,23.21,0,0,1-2.86-11.63,24.54,24.54,0,0,1,2.82-11.88,20.43,20.43,0,0,1,7.81-8.1,22.88,22.88,0,0,1,11.75-2.91,22.16,22.16,0,0,1,11.18,2.78,20,20,0,0,1,7.59,7.58,21.33,21.33,0,0,1,2.73,10.71c0,.64,0,1.3,0,2s-.07,1.42-.13,2.17H192.81a11.2,11.2,0,0,0,3.51,7.89,11,11,0,0,0,7.67,2.86,10.09,10.09,0,0,0,5.68-1.52,9.38,9.38,0,0,0,3.43-3.94h11.27a20.42,20.42,0,0,1-4,7.41,19.8,19.8,0,0,1-6.94,5.25A22,22,0,0,1,204.08,193.66Zm.09-36.07a11.83,11.83,0,0,0-7.2,2.3,10.66,10.66,0,0,0-4,7H214.4a9.44,9.44,0,0,0-3.12-6.77A10.42,10.42,0,0,0,204.17,157.59Z"/><path class="cls-5" d="M232.47,192.62V130.19h11.1v62.43Z"/><path class="cls-5" d="M268.8,193.66q-8.06,0-12.44-5T252,173.89V149.61h11v23.24c0,3.7.75,6.54,2.26,8.5s3.87,3,7.11,3A9.81,9.81,0,0,0,280,181q3-3.28,3-9.19v-22.2H294v43h-9.8l-.87-7.28a15.1,15.1,0,0,1-5.77,6.07A16.82,16.82,0,0,1,268.8,193.66Z"/><path class="cls-5" d="M322.21,193.66a20.23,20.23,0,0,1-10.84-2.94,21.16,21.16,0,0,1-7.54-8.07,25.59,25.59,0,0,1,0-23.2,20.81,20.81,0,0,1,7.54-8,20.39,20.39,0,0,1,10.84-2.91,18.83,18.83,0,0,1,8.5,1.82,15.4,15.4,0,0,1,5.9,5.12V130.19h11.1v62.43h-9.89l-1.21-6.15a19.9,19.9,0,0,1-5.51,5A16.44,16.44,0,0,1,322.21,193.66Zm2.34-9.71a11.59,11.59,0,0,0,8.8-3.6,14.15,14.15,0,0,0,0-18.47,11.59,11.59,0,0,0-8.8-3.6,11.75,11.75,0,0,0-8.76,3.56,12.6,12.6,0,0,0-3.46,9.19,12.92,12.92,0,0,0,3.46,9.28A11.6,11.6,0,0,0,324.55,184Z"/><path class="cls-5" d="M362.31,142.94a7,7,0,0,1-5-1.83,6,6,0,0,1-1.95-4.59,5.87,5.87,0,0,1,1.95-4.55,7.88,7.88,0,0,1,10,0,5.87,5.87,0,0,1,1.95,4.55,6,6,0,0,1-1.95,4.59A7,7,0,0,1,362.31,142.94Zm-5.55,49.68v-43h11.1v43Z"/><path class="cls-5" d="M397.13,193.66a23.09,23.09,0,0,1-11.62-2.86,20.8,20.8,0,0,1-7.93-8,25.09,25.09,0,0,1,0-23.42,20.89,20.89,0,0,1,7.93-8,23.19,23.19,0,0,1,11.62-2.86A22.24,22.24,0,0,1,411,152.86a19.21,19.21,0,0,1,7.2,11.84H406.5a8.57,8.57,0,0,0-3.43-4.9,10.74,10.74,0,0,0-13.83,1.69c-2.14,2.32-3.21,5.52-3.21,9.63s1.07,7.31,3.21,9.62a10.21,10.21,0,0,0,7.81,3.47,10.5,10.5,0,0,0,6-1.73,8.41,8.41,0,0,0,3.43-4.94h11.71a19.61,19.61,0,0,1-7.2,11.7A21.78,21.78,0,0,1,397.13,193.66Z"/></svg>